<?xml version="1.0" encoding="iso-8859-1"?>
<!DOCTYPE svg PUBLIC "-//W3C//DTD SVG 1.1//EN" "http://www.w3.org/Graphics/SVG/1.1/DTD/svg11.dtd">
<svg 
 version="1.1" xmlns="http://www.w3.org/2000/svg" xmlns:xlink="http://www.w3.org/1999/xlink" x="0px" y="0px" width="512px"
	 height="512px" viewBox="0 0 512 512" enable-background="new 0 0 512 512" xml:space="preserve"
><g id="5151e0c8492e5103c096af88a506b8e6"><g></g><g fill="#ffc01a"><path display="inline" d="M432.207,253.774V67.656l-0.124,0.055c0.041-0.547,0.124-1.095,0.124-1.648
		C432.207,30.131,345.425,1,238.379,1C131.33,1,44.552,30.131,44.552,66.063v346.408h0.055
		c1.125,32.141,71.636,58.671,163.607,63.496C235.595,498.479,270.647,512,308.862,512c87.587,0,158.586-70.999,158.586-158.586
		C467.448,315.66,454.232,281.007,432.207,253.774z M112.812,437.25c-32.406-10.152-33.834-20.938-35.958-24.779V266.58
		c20.983,10.614,51.018,19.021,86.373,24.025c-8.318,19.263-12.951,40.49-12.951,62.809c0,36.813,12.575,70.668,33.621,97.578
		C157.524,448.29,133.22,443.641,112.812,437.25z M396.969,382.784h-58.733v58.733h-58.74v-58.733h-58.733v-58.74h58.733v-58.733
		h58.74v58.733h58.733V382.784z M308.862,194.828c-56.514,0-106.086,29.583-134.172,74.083c-22.818-2.787-43.87-7.068-61.879-12.706
		c-32.406-10.152-33.834-20.938-35.958-24.779V102.02c34.722,17.538,94.092,29.105,161.525,29.105
		c67.434,0,126.801-11.567,161.525-29.105v121.579c0.004,0.004,0.011,0.007,0.014,0.011
		C374.145,205.496,342.758,194.828,308.862,194.828z M363.947,91.612c-33.899,10.617-78.494,16.468-125.568,16.468
		c-47.073,0-91.668-5.851-125.567-16.468c-34.915-10.937-44.678-22.628-45.614-25.55c0.936-2.925,10.703-14.615,45.614-25.554
		c33.902-10.617,78.494-16.468,125.567-16.468c47.07,0,91.666,5.851,125.565,16.468c34.914,10.939,44.682,22.628,45.617,25.554
		C408.626,68.984,398.862,80.675,363.947,91.612z"></path></g></g></svg>