<?xml version="1.0" encoding="iso-8859-1"?>
<!DOCTYPE svg PUBLIC "-//W3C//DTD SVG 1.1//EN" "http://www.w3.org/Graphics/SVG/1.1/DTD/svg11.dtd">
<svg 
 version="1.1" xmlns="http://www.w3.org/2000/svg" xmlns:xlink="http://www.w3.org/1999/xlink" x="0px" y="0px" width="512px"
	 height="512px" viewBox="0 0 512 512" enable-background="new 0 0 512 512" xml:space="preserve"
><g id="5151e0c8492e5103c096af88a5084460"><g></g><g fill="#ffc01a"><path display="inline" d="M351.814,149.541H32.438c-17.565,0-31.938,14.372-31.938,31.938V436.98
		c0,17.566,14.372,31.938,31.938,31.938h319.377c17.566,0,31.938-14.371,31.938-31.938V181.479
		C383.753,163.913,369.381,149.541,351.814,149.541z M112.282,446.562H32.438c-5.194,0-9.581-4.387-9.581-9.581v-79.844h89.426
		V446.562z M112.282,341.167H22.856v-95.813h89.426V341.167z M256.002,446.562H128.251v-89.425h127.751V446.562z M256.002,341.167
		H128.251v-95.813h127.751V341.167z M361.396,436.98c0,5.194-4.388,9.581-9.582,9.581h-79.844v-89.425h89.426V436.98z
		 M361.396,341.167h-89.426v-95.813h89.426V341.167z M511.5,75.02v255.502c0,17.565-14.372,31.938-31.938,31.938h-66v-22.356h66
		c5.198,0,9.581-4.387,9.581-9.581v-79.845h-75.581v-15.969h75.581v-92.087h-89.421v-0.024
		c-11.332-13.932-28.59-22.864-47.907-22.864H128.251V75.02c0-17.565,14.372-31.938,31.938-31.938h319.373
		C497.128,43.082,511.5,57.454,511.5,75.02z"></path></g></g></svg>