<?xml version="1.0" encoding="iso-8859-1"?>
<!DOCTYPE svg PUBLIC "-//W3C//DTD SVG 1.1//EN" "http://www.w3.org/Graphics/SVG/1.1/DTD/svg11.dtd">
<svg 
 version="1.1" xmlns="http://www.w3.org/2000/svg" xmlns:xlink="http://www.w3.org/1999/xlink" x="0px" y="0px" width="512px"
	 height="512px" viewBox="0 0 512 512" style="enable-background:new 0 0 512 512;" xml:space="preserve"
><g id="afcae5a789ccd549f9c6e2a2f817268c"><g></g><g fill="#b0b0b0"><path style="display: inline; fill-rule: evenodd; clip-rule: evenodd;" d="M284.391,28.89C158.958,28.89,57.28,130.572,57.28,256
		c0,0.236,0.009,0.472,0.009,0.708H0.5l79.49,78.782l78.778-78.782h-56.049c0-0.236-0.018-0.472-0.018-0.708
		c0-100.345,81.345-181.69,181.69-181.69c100.339,0,181.689,81.346,181.689,181.69s-81.351,181.689-181.689,181.689
		c-50.257,0-95.745-20.414-128.64-53.386l-32.782,31.416c41.165,41.604,98.271,67.391,161.421,67.391
		C409.817,483.11,511.5,381.428,511.5,256S409.817,28.89,284.391,28.89z M361.04,334.07l-62.46-75.23l-8.51-141.237l-12.775,0.712
		l-7.813,151.881l84.462,71.682L361.04,334.07z"></path></g></g></svg>